<?xml version="1.0" standalone="no"?>
<!DOCTYPE svg PUBLIC "-//W3C//DTD SVG 20010904//EN"
 "http://www.w3.org/TR/2001/REC-SVG-20010904/DTD/svg10.dtd">
<svg version="1.0" xmlns="http://www.w3.org/2000/svg"
 width="371.000000pt" height="269.000000pt" viewBox="0 0 371.000000 269.000000"
 preserveAspectRatio="xMidYMid meet">

<g transform="translate(0.000000,269.000000) scale(0.100000,-0.100000)"
fill="#000000" stroke="none">
<path d="M1656 2674 c-358 -71 -631 -330 -718 -681 -27 -111 -30 -303 -4 -407
87 -362 367 -627 734 -697 91 -17 309 -6 397 20 91 27 240 101 303 150 l49 39
109 -109 c113 -113 136 -126 167 -91 31 34 19 55 -88 162 -58 58 -105 108
-105 112 0 4 23 38 52 75 28 37 69 105 90 150 251 533 -64 1154 -647 1274
-105 22 -240 23 -339 3z m317 -98 c153 -30 289 -100 404 -209 177 -169 265
-391 250 -635 -3 -53 -13 -124 -22 -157 -22 -83 -97 -231 -144 -285 l-40 -45
-473 473 c-295 294 -480 472 -492 472 -27 0 -56 -29 -56 -54 0 -14 59 -80 175
-196 l175 -175 -175 -175 c-96 -96 -175 -182 -175 -189 0 -20 40 -61 59 -61 8
0 94 79 191 175 l175 175 260 -261 260 -260 -35 -30 c-19 -16 -73 -49 -120
-74 -226 -116 -483 -120 -715 -11 -213 101 -371 290 -437 523 -17 61 -22 105
-22 203 0 132 12 197 58 312 103 254 344 444 626 491 58 10 204 6 273 -7z"/>
<path d="M2037 2052 l-137 -138 33 -32 c18 -18 37 -32 43 -32 13 0 274 264
274 277 0 19 -41 63 -58 63 -10 0 -79 -62 -155 -138z"/>
<path d="M35 473 c10 -15 47 -67 82 -115 l63 -88 -85 -120 c-47 -66 -85 -123
-85 -125 0 -3 13 -5 29 -5 25 0 36 12 97 105 38 57 72 105 75 105 4 0 37 -47
75 -105 64 -98 71 -105 102 -105 39 0 44 -13 -61 138 l-79 112 74 102 c98 137
94 128 60 128 -25 0 -38 -12 -97 -96 -38 -53 -71 -92 -76 -87 -5 5 -35 47 -66
93 -52 76 -62 85 -92 88 l-34 4 18 -29z"/>
<path d="M803 463 c-8 -21 -55 -129 -103 -240 l-88 -203 27 0 c19 0 31 7 38
23 6 12 45 107 88 211 44 104 80 185 82 180 2 -5 41 -99 86 -209 78 -189 84
-200 111 -203 34 -4 43 -32 -81 256 -87 200 -99 222 -120 222 -18 0 -28 -9
-40 -37z"/>
<path d="M1320 260 l0 -240 25 0 25 0 2 202 3 202 140 -199 c129 -184 143
-200 173 -203 l32 -3 0 241 0 241 -22 -3 c-23 -3 -23 -3 -23 -201 0 -108 -2
-197 -5 -197 -3 0 -68 90 -145 200 -133 189 -142 199 -172 200 l-33 0 0 -240z"/>
<path d="M2170 480 c-6 -11 -47 -105 -92 -208 -44 -103 -87 -202 -94 -219 -14
-33 -14 -33 14 -33 28 0 31 6 112 205 47 113 87 205 91 205 3 0 44 -92 90
-205 81 -199 85 -205 112 -205 16 0 27 4 25 9 -1 5 -48 113 -103 240 -87 202
-103 231 -122 231 -12 0 -27 -9 -33 -20z"/>
<path d="M2677 493 c-7 -7 -10 -467 -3 -474 2 -2 60 -2 128 1 117 5 128 7 174
35 126 78 151 248 52 360 -55 63 -120 85 -247 85 -54 0 -101 -3 -104 -7z m241
-59 c55 -23 91 -62 107 -118 18 -59 12 -105 -20 -161 -35 -62 -91 -88 -197
-93 l-88 -4 0 196 0 196 80 0 c50 0 95 -6 118 -16z"/>
<path d="M3357 493 c-11 -10 -8 -270 3 -337 11 -68 47 -122 96 -142 79 -33
184 -3 226 64 22 35 23 49 26 230 l4 192 -26 0 -26 0 0 -175 c0 -154 -2 -181
-19 -213 -23 -45 -55 -62 -116 -62 -58 0 -99 34 -114 94 -6 25 -11 115 -11
200 0 145 -1 156 -18 156 -10 0 -22 -3 -25 -7z"/>
</g>
</svg>
